<?xml version="1.0"?>
<svg xmlns="http://www.w3.org/2000/svg" height="48" viewBox="0 0 48 48" width="48"><path d="M0 0h48v48h-48z" fill="none"/><path d="M42 16v-2l-6 4-6-4v2l6 4 6-4zm2-10h-40c-2.21 0-4 1.79-4 4v28c0 2.21 1.79 4 4 4h40c2.21 0 3.98-1.79 3.98-4l.02-28c0-2.21-1.79-4-4-4zm-28 6c3.31 0 6 2.69 6 6 0 3.32-2.69 6-6 6s-6-2.68-6-6c0-3.31 2.69-6 6-6zm12 24h-24v-2c0-4 8-6.2 12-6.2s12 2.2 12 6.2v2zm16-12h-16v-12h16v12z"/><path d="M0 0h48v48h-48z" fill="none"/>
	
	
	<metadata>
		<rdf:RDF xmlns:rdf="http://www.w3.org/1999/02/22-rdf-syntax-ns#" xmlns:rdfs="http://www.w3.org/2000/01/rdf-schema#" xmlns:dc="http://purl.org/dc/elements/1.1/">
			<rdf:Description about="https://iconscout.com/legal#licenses" dc:title="Contact, Mail, Quick, Speed, Dial" dc:description="Contact, Mail, Quick, Speed, Dial" dc:publisher="Iconscout" dc:date="2016-12-14" dc:format="image/svg+xml" dc:language="en">
				<dc:creator>
					<rdf:Bag>
						<rdf:li>Google Inc.</rdf:li>
					</rdf:Bag>
				</dc:creator>
			</rdf:Description>
		</rdf:RDF>
    </metadata></svg>
